<svg width="223" height="48" viewBox="0 0 223 48" fill="none" xmlns="http://www.w3.org/2000/svg">
<path d="M72.7952 39.6982V43.6438C72.7952 43.8904 73.0007 44.1096 73.261 44.1096C73.5213 44.1096 73.7268 43.8904 73.7268 43.6438V35.1361C73.7268 34.8895 73.5213 34.6703 73.261 34.6703C73.0007 34.6703 72.7952 34.8895 72.7952 35.1361V38.8488H68.0276V35.1361C68.0276 34.8895 67.8221 34.6703 67.5618 34.6703C67.3015 34.6703 67.096 34.8895 67.096 35.1361V43.6438C67.096 43.8904 67.3015 44.1096 67.5618 44.1096C67.8221 44.1096 68.0276 43.8904 68.0276 43.6438V39.6982H72.7952ZM81.7771 44.1918C84.4349 44.1918 86.0515 42.6163 86.0515 39.3968C86.0515 36.1499 84.4349 34.5881 81.7771 34.5881C79.1193 34.5881 77.5027 36.1499 77.5027 39.3968C77.5027 42.6163 79.1193 44.1918 81.7771 44.1918ZM81.7771 35.4375C83.8732 35.4375 85.0925 36.7116 85.0925 39.3968C85.0925 42.0683 83.8732 43.3424 81.7771 43.3424C79.681 43.3424 78.4617 42.0683 78.4617 39.3968C78.4617 36.7116 79.681 35.4375 81.7771 35.4375ZM93.8738 42.5067C94.0382 42.5067 94.1889 42.4245 94.2848 42.2464L97.1618 36.9171V43.6575C97.1618 43.9041 97.3673 44.1096 97.6139 44.1096C97.8605 44.1096 98.066 43.9041 98.066 43.6575V35.1224C98.066 34.8758 97.8605 34.6703 97.6139 34.6703C97.3673 34.6703 97.2577 34.8347 97.2029 34.9306L93.8738 41.1367L90.5584 34.9306C90.4899 34.7936 90.3529 34.6703 90.1474 34.6703C89.9008 34.6703 89.6953 34.8758 89.6953 35.1224V43.6575C89.6953 43.9041 89.9008 44.1096 90.1474 44.1096C90.394 44.1096 90.5995 43.9041 90.5995 43.6575V36.9171L93.4628 42.2464C93.5587 42.4382 93.7368 42.5067 93.8738 42.5067ZM107.352 44C107.585 44 107.777 43.8082 107.777 43.5753C107.777 43.3424 107.585 43.1506 107.352 43.1506H103.269V39.7804H106.283C106.516 39.7804 106.708 39.5886 106.708 39.3557C106.708 39.1228 106.516 38.931 106.283 38.931H103.269V35.6293H107.201C107.434 35.6293 107.626 35.4375 107.626 35.2046C107.626 34.9717 107.434 34.7799 107.201 34.7799H102.804C102.543 34.7799 102.338 34.9854 102.338 35.2457V43.5342C102.338 43.7945 102.543 44 102.804 44H107.352ZM117.791 35.1361C117.791 34.8895 117.585 34.6703 117.325 34.6703C117.065 34.6703 116.859 34.8895 116.859 35.1361V43.6438C116.859 43.8904 117.065 44.1096 117.325 44.1096C117.585 44.1096 117.791 43.8904 117.791 43.6438V35.1361ZM128.047 34.6703C127.8 34.6703 127.595 34.8758 127.595 35.1224V42.1505L122.745 34.8621C122.676 34.7662 122.539 34.6703 122.375 34.6703C122.128 34.6703 121.923 34.8758 121.923 35.1224V43.6575C121.923 43.9041 122.128 44.1096 122.375 44.1096C122.622 44.1096 122.827 43.9041 122.827 43.6575V36.6431L127.649 43.9178C127.745 44.0411 127.869 44.1096 128.033 44.1096C128.293 44.1096 128.499 43.9041 128.499 43.6438V35.1224C128.499 34.8758 128.293 34.6703 128.047 34.6703ZM134.762 35.6567V43.6438C134.762 43.9041 134.968 44.1096 135.228 44.1096C135.488 44.1096 135.694 43.9041 135.694 43.6438V35.6567H138.132C138.379 35.6567 138.571 35.4649 138.571 35.2183C138.571 34.9717 138.379 34.7799 138.132 34.7799H132.31C132.063 34.7799 131.871 34.9717 131.871 35.2183C131.871 35.4649 132.063 35.6567 132.31 35.6567H134.762ZM147.108 44C147.341 44 147.533 43.8082 147.533 43.5753C147.533 43.3424 147.341 43.1506 147.108 43.1506H143.025V39.7804H146.039C146.272 39.7804 146.464 39.5886 146.464 39.3557C146.464 39.1228 146.272 38.931 146.039 38.931H143.025V35.6293H146.957C147.19 35.6293 147.382 35.4375 147.382 35.2046C147.382 34.9717 147.19 34.7799 146.957 34.7799H142.559C142.299 34.7799 142.094 34.9854 142.094 35.2457V43.5342C142.094 43.7945 142.299 44 142.559 44H147.108ZM152.199 43.1232V35.1361C152.199 34.8758 151.994 34.6703 151.733 34.6703C151.473 34.6703 151.268 34.8758 151.268 35.1361V43.5342C151.268 43.7945 151.473 44 151.733 44H155.953C156.2 44 156.391 43.8082 156.391 43.5616C156.391 43.315 156.2 43.1232 155.953 43.1232H152.199ZM160.905 43.1232V35.1361C160.905 34.8758 160.7 34.6703 160.439 34.6703C160.179 34.6703 159.973 34.8758 159.973 35.1361V43.5342C159.973 43.7945 160.179 44 160.439 44H164.659C164.905 44 165.097 43.8082 165.097 43.5616C165.097 43.315 164.905 43.1232 164.659 43.1232H160.905ZM169.611 35.1361C169.611 34.8895 169.405 34.6703 169.145 34.6703C168.885 34.6703 168.679 34.8895 168.679 35.1361V43.6438C168.679 43.8904 168.885 44.1096 169.145 44.1096C169.405 44.1096 169.611 43.8904 169.611 43.6438V35.1361ZM177.661 43.3424C175.551 43.3424 174.346 42.2464 174.346 39.3968C174.346 36.7116 175.551 35.4375 177.661 35.4375C178.702 35.4375 179.579 35.9444 180.045 36.5883C180.154 36.7253 180.278 36.7664 180.401 36.7664C180.648 36.7664 180.839 36.5746 180.839 36.328C180.839 36.2321 180.812 36.1362 180.743 36.0403C180.1 35.1498 178.962 34.5881 177.661 34.5881C175.003 34.5881 173.387 36.1499 173.387 39.3968C173.387 42.767 175.003 44.1918 177.661 44.1918C179.319 44.1918 180.278 43.452 180.935 42.6848C181.059 42.5341 181.113 42.3971 181.113 42.2327V39.8352C181.113 39.6023 180.908 39.4105 180.689 39.4105H177.921C177.688 39.4105 177.497 39.6023 177.497 39.8352C177.497 40.0681 177.688 40.2599 177.921 40.2599H180.209V42.2464C179.757 42.8081 178.935 43.3424 177.661 43.3424ZM190.061 44C190.294 44 190.486 43.8082 190.486 43.5753C190.486 43.3424 190.294 43.1506 190.061 43.1506H185.979V39.7804H188.993C189.226 39.7804 189.418 39.5886 189.418 39.3557C189.418 39.1228 189.226 38.931 188.993 38.931H185.979V35.6293H189.911C190.144 35.6293 190.335 35.4375 190.335 35.2046C190.335 34.9717 190.144 34.7799 189.911 34.7799H185.513C185.253 34.7799 185.047 34.9854 185.047 35.2457V43.5342C185.047 43.7945 185.253 44 185.513 44H190.061ZM200.208 34.6703C199.962 34.6703 199.756 34.8758 199.756 35.1224V42.1505L194.906 34.8621C194.838 34.7662 194.701 34.6703 194.536 34.6703C194.29 34.6703 194.084 34.8758 194.084 35.1224V43.6575C194.084 43.9041 194.29 44.1096 194.536 44.1096C194.783 44.1096 194.988 43.9041 194.988 43.6575V36.6431L199.811 43.9178C199.907 44.0411 200.03 44.1096 200.194 44.1096C200.455 44.1096 200.66 43.9041 200.66 43.6438V35.1224C200.66 34.8758 200.455 34.6703 200.208 34.6703ZM208.581 44.1918C209.842 44.1918 211.075 43.6164 211.677 42.7396C211.732 42.6574 211.76 42.5889 211.76 42.4793C211.76 42.2327 211.568 42.0409 211.321 42.0409C211.212 42.0409 211.061 42.082 210.965 42.219C210.431 42.9862 209.485 43.3424 208.581 43.3424C206.471 43.3424 205.266 42.2464 205.266 39.3968C205.266 36.7116 206.471 35.4375 208.581 35.4375C209.609 35.4375 210.499 35.9444 210.965 36.5883C211.075 36.7253 211.198 36.7664 211.321 36.7664C211.568 36.7664 211.76 36.5746 211.76 36.328C211.76 36.2321 211.732 36.1362 211.664 36.0403C211.02 35.1498 209.883 34.5881 208.581 34.5881C205.923 34.5881 204.307 36.1499 204.307 39.3968C204.307 42.767 205.923 44.1918 208.581 44.1918ZM220.54 44C220.773 44 220.965 43.8082 220.965 43.5753C220.965 43.3424 220.773 43.1506 220.54 43.1506H216.458V39.7804H219.472C219.705 39.7804 219.896 39.5886 219.896 39.3557C219.896 39.1228 219.705 38.931 219.472 38.931H216.458V35.6293H220.39C220.622 35.6293 220.814 35.4375 220.814 35.2046C220.814 34.9717 220.622 34.7799 220.39 34.7799H215.992C215.732 34.7799 215.526 34.9854 215.526 35.2457V43.5342C215.526 43.7945 215.732 44 215.992 44H220.54Z" fill="#999999"/>
<path d="M68.0223 30.0549C67.7509 30.0618 67.481 30.0134 67.2289 29.9127C66.9768 29.812 66.7479 29.661 66.5559 29.4691C66.364 29.2772 66.2131 29.0482 66.1124 28.7961C66.0117 28.544 65.9633 28.2741 65.9701 28.0028V3.56036C65.9601 3.28817 66.0063 3.01683 66.1059 2.76331C66.2054 2.50978 66.3562 2.27953 66.5488 2.08693C66.7414 1.89433 66.9717 1.74352 67.2252 1.64394C67.4787 1.54436 67.7501 1.49815 68.0223 1.50818C69.1932 1.50818 69.9904 2.34587 69.9904 3.56036V15.8236L84.0536 2.09674C84.2214 1.90842 84.4279 1.7586 84.659 1.65756C84.8902 1.55651 85.1404 1.50661 85.3926 1.51129C86.3985 1.51129 87.3607 2.30538 87.3607 3.35172C87.3693 3.62671 87.3181 3.9003 87.2105 4.15354C87.103 4.40679 86.9417 4.63366 86.7379 4.81845L78.6942 12.6846L87.778 27.0841C87.9898 27.4226 88.1061 27.8122 88.1143 28.2114C88.0965 28.6947 87.8966 29.1533 87.5547 29.4953C87.2127 29.8373 86.754 30.0372 86.2708 30.0549C85.3926 30.0549 84.8912 29.7622 84.5144 29.1207L75.8511 15.3627L69.9904 21.0926V27.9997C70.003 28.2656 69.9615 28.5313 69.8682 28.7806C69.7749 29.0299 69.6318 29.2577 69.4477 29.45C69.2636 29.6422 69.0423 29.795 68.7972 29.899C68.5521 30.003 68.2885 30.0561 68.0223 30.0549Z" fill="#263A4A"/>
<path d="M97.5757 18.6015V3.56048C97.5652 3.28844 97.611 3.01717 97.7102 2.76365C97.8095 2.51014 97.96 2.27985 98.1523 2.08719C98.3447 1.89454 98.5748 1.74369 98.8281 1.64408C99.0815 1.54446 99.3527 1.49824 99.6248 1.50831C100.799 1.50831 101.593 2.34599 101.593 3.56048V19.0032C101.593 23.4844 104.23 26.5798 109.338 26.5798C114.445 26.5798 117.089 23.4844 117.089 19.0032V3.56048C117.089 2.34599 117.886 1.50831 119.057 1.50831C119.329 1.4978 119.6 1.5437 119.854 1.64311C120.108 1.74253 120.338 1.89332 120.531 2.08601C120.724 2.27871 120.875 2.50916 120.974 2.76289C121.073 3.01663 121.119 3.28817 121.109 3.56048V18.6015C121.109 25.7639 116.715 30.2388 109.347 30.2388C101.979 30.2388 97.5757 25.7421 97.5757 18.6015Z" fill="#263A4A"/>
<path d="M134.706 30.0549C134.435 30.0618 134.165 30.0134 133.913 29.9127C133.66 29.812 133.431 29.661 133.24 29.4691C133.048 29.2772 132.897 29.0482 132.796 28.7961C132.695 28.544 132.647 28.2741 132.654 28.0028V3.56036C132.644 3.28817 132.69 3.01683 132.789 2.76331C132.889 2.50978 133.04 2.27953 133.232 2.08693C133.425 1.89433 133.655 1.74352 133.909 1.64394C134.162 1.54436 134.434 1.49815 134.706 1.50818C135.877 1.50818 136.671 2.34587 136.671 3.56036V15.8236L150.737 2.09674C150.905 1.90842 151.112 1.7586 151.343 1.65756C151.574 1.55651 151.824 1.50661 152.076 1.51129C153.082 1.51129 154.044 2.30538 154.044 3.35172C154.052 3.62663 154.001 3.90002 153.893 4.15318C153.786 4.40633 153.625 4.63326 153.421 4.81845L145.378 12.6846L154.458 27.0841C154.67 27.4226 154.787 27.8122 154.795 28.2114C154.777 28.6947 154.577 29.1533 154.235 29.4953C153.893 29.8373 153.435 30.0372 152.951 30.0549C152.073 30.0549 151.569 29.7622 151.195 29.1207L142.532 15.3627L136.671 21.0926V27.9997C136.684 28.2654 136.643 28.5311 136.55 28.7804C136.457 29.0297 136.314 29.2575 136.13 29.4498C135.946 29.6421 135.725 29.795 135.48 29.899C135.235 30.0031 134.972 30.0561 134.706 30.0549Z" fill="#263A4A"/>
<path d="M164.257 18.6014V3.56037C164.247 3.28833 164.293 3.01705 164.392 2.76354C164.491 2.51002 164.642 2.27973 164.834 2.08708C165.026 1.89443 165.256 1.74357 165.51 1.64396C165.763 1.54435 166.034 1.49812 166.306 1.50819C167.48 1.50819 168.274 2.34587 168.274 3.56037V19.0031C168.274 23.4842 170.912 26.5796 176.019 26.5796C181.126 26.5796 183.761 23.4842 183.761 19.0031V3.56037C183.761 2.34587 184.558 1.50819 185.729 1.50819C186.001 1.49859 186.272 1.54513 186.525 1.64491C186.778 1.74469 187.008 1.89556 187.2 2.08811C187.393 2.28066 187.543 2.51077 187.642 2.76407C187.742 3.01738 187.788 3.28844 187.778 3.56037V18.6014C187.778 25.7638 183.384 30.2387 176.016 30.2387C168.648 30.2387 164.257 25.742 164.257 18.6014Z" fill="#263A4A"/>
<path d="M220.68 30.0547C220.389 30.07 220.099 30.0129 219.836 29.8884C219.573 29.7639 219.345 29.576 219.173 29.3416L203.142 8.91636V28.1707C203.122 28.6624 202.912 29.1274 202.557 29.4683C202.202 29.8091 201.729 29.9995 201.237 29.9995C200.745 29.9995 200.272 29.8091 199.917 29.4683C199.562 29.1274 199.353 28.6624 199.333 28.1707V3.43246C199.333 2.21797 200.087 1.50796 201.301 1.50796C201.597 1.51138 201.888 1.58516 202.15 1.72323C202.413 1.8613 202.638 2.05969 202.808 2.30205L218.796 22.6494V3.43246C218.781 3.17583 218.821 2.91894 218.912 2.67868C219.003 2.43842 219.145 2.22023 219.327 2.03846C219.508 1.85668 219.726 1.71544 219.967 1.624C220.207 1.53257 220.464 1.49302 220.721 1.50796C221.851 1.50796 222.605 2.26157 222.605 3.43246V28.1707C222.616 28.4245 222.573 28.6778 222.48 28.9141C222.386 29.1504 222.244 29.3644 222.063 29.5421C221.881 29.7198 221.664 29.8573 221.426 29.9457C221.188 30.034 220.934 30.0711 220.68 30.0547Z" fill="#263A4A"/>
<path d="M18.3138 15.3929C19.2562 16.334 20.5336 16.8626 21.8655 16.8626C23.1973 16.8626 24.4747 16.334 25.4171 15.3929L40.6262 0.183731C40.6854 0.124563 40.7352 0.0622816 40.7913 0H36.5094L23.2683 13.2411C22.8893 13.5984 22.388 13.7975 21.867 13.7975C21.346 13.7975 20.8448 13.5984 20.4657 13.2411L7.21838 0H2.93652C2.99258 0.0622816 3.04552 0.124563 3.10468 0.183731L18.3138 15.3929Z" fill="#F05825"/>
<path d="M21.8634 8.07169C22.2072 8.07326 22.5478 8.00633 22.8654 7.8748C23.183 7.74327 23.4712 7.54978 23.7132 7.30563L31.0188 0H26.7214L21.8634 4.85485L17.0086 0H12.708L20.0136 7.30563C20.2559 7.54936 20.5442 7.74257 20.8617 7.87407C21.1793 8.00557 21.5197 8.07274 21.8634 8.07169V8.07169Z" fill="#F05825"/>
<path d="M20.0168 36.4353L12.708 43.7316H17.0086L21.8634 38.8736L26.7214 43.7316H31.0188L23.7132 36.4353C23.2223 35.9464 22.5577 35.6719 21.865 35.6719C21.1722 35.6719 20.5076 35.9464 20.0168 36.4353Z" fill="#F05825"/>
<path d="M25.4185 28.3382C24.4765 27.3963 23.1989 26.8672 21.8669 26.8672C20.5348 26.8672 19.2572 27.3963 18.3152 28.3382L3.11543 43.5474C3.05626 43.6065 3.00332 43.6688 2.94727 43.7311H7.21978L20.464 30.4869C20.8375 30.1187 21.3408 29.9123 21.8653 29.9123C22.3898 29.9123 22.8931 30.1187 23.2666 30.4869L36.5077 43.7311H40.7958C40.7397 43.6688 40.6899 43.6065 40.6307 43.5474L25.4185 28.3382Z" fill="#F05825"/>
<path d="M15.3929 25.4169C16.3332 24.4741 16.8613 23.1969 16.8613 21.8653C16.8613 20.5337 16.3332 19.2565 15.3929 18.3137L0.183731 3.1139C0.124563 3.04539 0.0591675 3.00802 0 2.95508V7.21825L13.2411 20.4624C13.6092 20.8359 13.8156 21.3393 13.8156 21.8638C13.8156 22.3882 13.6092 22.8916 13.2411 23.2651L0 36.5093V40.7756C0.0591675 40.7226 0.124563 40.6821 0.183731 40.6261L15.3929 25.4169Z" fill="#F05825"/>
<path d="M8.07169 21.8644C8.07302 21.5211 8.00596 21.181 7.87444 20.864C7.74291 20.5469 7.54954 20.2592 7.30563 20.0177L0 12.709V17.0095L4.85485 21.8644L0 26.7223V31.0198L7.30563 23.7141C7.54978 23.4722 7.74327 23.1839 7.8748 22.8663C8.00633 22.5487 8.07326 22.2081 8.07169 21.8644V21.8644Z" fill="#F05825"/>
<path d="M36.4363 23.7141L43.745 31.0198V26.7223L38.887 21.8644L43.745 17.0095V12.709L36.4363 20.0177C35.9474 20.5086 35.6729 21.1731 35.6729 21.8659C35.6729 22.5587 35.9474 23.2233 36.4363 23.7141Z" fill="#F05825"/>
<path d="M28.3395 18.3129C27.3992 19.2557 26.8711 20.5329 26.8711 21.8645C26.8711 23.1961 27.3992 24.4733 28.3395 25.4161L43.5487 40.6253C43.6079 40.6844 43.6701 40.7342 43.7324 40.7903V36.5084L30.4882 23.2674C30.1201 22.8939 29.9137 22.3905 29.9137 21.866C29.9137 21.3416 30.1201 20.8382 30.4882 20.4647L43.7324 7.22052V2.93555L43.5487 3.10059L28.3395 18.3129Z" fill="#F05825"/>
</svg>
